<svg id="a5fd0158-7c8e-4201-81c7-4e20122a8dad" data-name="b76fc200-898e-49bf-a81d-f8fbaa1fbe1d" xmlns="http://www.w3.org/2000/svg" viewBox="0 0 367.4 68.7"><path d="M2.8,47.3V66.5c3.3-4,45.7-57.5,49-61H36.4Z" transform="translate(60.8)" fill="#c12727"/><path d="M32.5,20.3" transform="translate(60.8)" fill="#fff" stroke="#000" stroke-miterlimit="10"/><line y1="0.6" x2="0.9" fill="none"/><polyline points="63.7 5.5 63.7 45.4 75.8 30 75.8 5.5" fill="#ef2222"/><polygon points="90.6 66.6 108.1 66.5 85.9 39.6 77.5 50.7 90.6 66.6" fill="#ef2222"/><path d="M272.8,59.1l-.2-.4-.2-.3-.3-.9h1.3v3.3Zm-.5-49.7V8h1.1V9.4Zm0,2.2V10.4h1.1v1.2Zm0,2.3V12.6h1.1v1.3Zm0,2.3V14.8h1.1v1.4Zm0,2.2V17.1h1.1v1.3Zm0,2.3V19.3h1.1v1.4Zm0,2.3V21.6h1.1V23Zm0,2.3V23.8h1.1v1.5Zm0,2.2V26.1h1.1v1.4Zm0,2.4V28.3h1.1v1.6Zm0,2.2V30.5h1.1v1.6Zm0,2.4V32.8h1.1v1.7Zm0,2.2V35h1.1v1.7Zm0,2.3V37.3h1.1V39Zm0,2.3V39.5h1.1v1.8Zm0,2.3V41.8h1.1v1.8Zm0,2.2V44.1h1.1v1.7Zm0,2.4V46.3h1.1v1.8Zm0,2.2V48.6h1.1v1.8Zm0,2.3V50.8h1.1v1.9Zm0,2.3V53.1h1.1V55Zm0,2.3v-2h1.1v2Zm2.1,4.7h1.5v2.3Zm.3-52.6V8h1.2V9.4Zm0,2.2V10.4h1.2v1.2Zm0,2.3V12.6h1.2v1.3Zm0,2.3V14.8h1.2v1.4Zm0,2.2V17.1h1.2v1.3Zm0,2.3V19.3h1.2v1.4Zm0,2.3V21.6h1.2V23Zm0,2.3V23.8h1.2v1.5Zm0,2.2V26.1h1.2v1.4Zm0,2.4V28.3h1.2v1.6Zm0,2.2V30.5h1.2v1.6Zm0,2.4V32.8h1.2v1.7Zm0,2.2V35h1.2v1.7Zm0,2.3V37.3h1.2V39Zm0,2.3V39.5h1.2v1.8Zm0,2.3V41.8h1.2v1.8Zm0,2.2V44.1h1.2v1.7Zm0,2.4V46.3h1.2v1.8Zm0,2.2V48.6h1.2v1.8Zm0,2.3V50.8h1.2v1.9Zm0,2.3V53.1h1.2V55Zm0,2.3v-2h1.2v2Zm0,2.2v-2h1.2v2Zm0,2.3v-2h1.2v2Zm2.6-52.4V8h1.2V9.4Zm0,2.2V10.4h1.2v1.2Zm0,2.3V12.6h1.2v1.3Zm0,2.3V14.8h1.2v1.4Zm0,2.2V17.1h1.2v1.3Zm0,2.3V19.3h1.2v1.4Zm0,2.3V21.6h1.2V23Zm0,2.3V23.8h1.2v1.5Zm0,2.2V26.1h1.2v1.4Zm0,2.4V28.3h1.2v1.6Zm0,2.2V30.5h1.2v1.6Zm0,2.4V32.8h1.2v1.7Zm0,2.2V35h1.2v1.7Zm0,2.3V37.3h1.2V39Zm0,2.3V39.5h1.2v1.8Zm0,2.3V41.8h1.2v1.8Zm0,2.2V44.1h1.2v1.7Zm0,2.4V46.3h1.2v1.8Zm0,2.2V48.6h1.2v1.8Zm0,2.3V50.8h1.2v1.9Zm0,2.3V53.1h1.2V55Zm0,2.3v-2h1.2v2Zm0,2.2v-2h1.2v2Zm0,2.3v-2h1.2v2Zm0,2.3V62h1.2v2.1Zm.5,1.7-.5-.4V64.3h1.2v1.8l-.7-.3Zm2-56.4V8H281V9.4Zm0,2.2V10.4H281v1.2Zm0,2.3V12.6H281v1.3Zm0,2.3V14.8H281v1.4Zm0,2.2V17.1H281v1.3Zm0,2.3V19.3H281v1.4Zm0,2.3V21.6H281V23Zm0,2.3V23.8H281v1.5Zm0,2.3V26.1H281v1.4Zm0,2.3V28.3H281v1.6Zm0,2.2V30.5H281v1.6Zm0,2.4V32.8H281v1.7Zm0,2.2V35H281v1.7Zm0,2.3V37.3H281V39Zm0,2.3V39.5H281v1.8Zm0,2.3V41.8H281v1.8Zm0,2.2V44.1H281v1.7Zm0,2.4V46.3H281v1.8Zm0,2.2V48.6H281v1.8Zm0,2.3V50.8H281v1.9Zm0,2.3V53.1H281V55Zm0,2.3v-2H281v2Zm0,2.2v-2H281v2Zm0,2.3v-2H281v2Zm0,2.3V62H281v2.1Zm0,2.2v-2H281v2Zm2.5-15.9V48.6h.7c0,.2.1.3.1.5v.4c0-.1.1.2.2.9Zm0,2.3V50.8h1.1a1.1,1.1,0,0,1,.2.8v1.1Zm0,2.3V53.1h1.3V55Zm0,2.3v-2h1.3v2Zm0,2.2v-2h1.3v2Zm0,2.3v-2h1.3v2Zm0,2.3V62h1.3v2.1Zm0,2.2v-2h1.3v2Zm.8,2.1h-.4l-.4-.2V66.5h1.3v2.2Zm1.7-11.1v-2h1.4v2Zm0,2.2v-2h1.4v2Zm0,2.3v-2h1.4v2Zm0,2.3V62h1.4v2.1Zm0,2.2v-2h1.4v2Zm0,2.4V66.5h1.4v2.2Zm2.4-11.4V55.2l.8.2h.7v1.9Zm0,2.2v-2h1.5v2Zm0,2.3v-2h1.5v2Zm0,2.3V62h1.5v2.1Zm0,2.2v-2h1.5v2Zm0,2.4V66.5h1.5v2.2Zm2.6-11.4v-2h1.5v2Zm0,2.2v-2h1.5v2Zm0,2.3v-2h1.5v2Zm0,2.3V62h1.5v2.1Zm0,2.2v-2h1.5v2Zm0,2.4V66.5h1.5v2.2ZM292.2,55V53.7l.2-.2.2-.3h1.2v1.9Zm0,2.3v-2h1.6v2Zm0,2.2v-2h1.6v2Zm0,2.3v-2h1.6v2Zm0,2.3V62h1.6v2.1Zm0,2.2v-2h1.6v2Zm1.1,2.4h-1.1V66.5h1.6v2.1Zm.1-16-.2-.7h.6v.7Zm1.4-43.3V8h1.6V9.4Zm0,2.2V10.4h1.6v1.2Zm0,2.3V12.6h1.6v1.3Zm0,2.3V14.8h1.6v1.4Zm0,2.2V17.1h1.6v1.3Zm0,2.3V19.3h1.6v1.4Zm0,2.3V21.6h1.6V23Zm0,2.3V23.8h1.6v1.5Zm0,2.3V26.1h1.6v1.4Zm0,2.3V28.3h1.6v1.6Zm0,2.2V30.5h1.6v1.6Zm0,2.4V32.8h1.6v1.7Zm0,2.2V35h1.6v1.7Zm0,2.3V37.3h1.6V39Zm0,2.3V39.5h1.6v1.8Zm0,2.3V41.8h1.6v1.8Zm0,2.2V44.1h1.6v1.7Zm0,2.4V46.3h1.6v1.8Zm0,2.2V48.6h1.6v1.8Zm0,2.3V50.8h1.6v1.9Zm0,2.3V53.1h1.6V55Zm0,2.3v-2h1.6v2Zm0,2.2v-2h1.6v2Zm0,2.3v-2h1.6v2Zm0,2.3V62h1.6v2.1Zm0,2.2v-2h1.6v2Zm.9,1.5-.9.4V66.5h1.6v.9l-.7.4Zm1.6-58.4V8h1.6V9.4Zm0,2.2V10.4h1.6v1.2Zm0,2.3V12.6h1.6v1.3Zm0,2.3V14.8h1.6v1.4Zm0,2.2V17.1h1.6v1.3Zm0,2.3V19.3h1.6v1.4Zm0,2.3V21.6h1.6V23Zm0,2.3V23.8h1.6v1.5Zm0,2.3V26.1h1.6v1.4Zm0,2.3V28.3h1.6v1.6Zm0,2.2V30.5h1.6v1.6Zm0,2.4V32.8h1.6v1.7Zm0,2.2V35h1.6v1.7Zm0,2.3V37.3h1.6V39Zm0,2.3V39.5h1.6v1.8Zm0,2.3V41.8h1.6v1.8Zm0,2.2V44.1h1.6v1.7Zm0,2.4V46.3h1.6v1.8Zm0,2.2V48.6h1.6v1.8Zm0,2.3V50.8h1.6v1.9Zm0,2.3V53.1h1.6V55Zm0,2.3v-2h1.6v2Zm0,2.2v-2h1.6v2Zm0,2.3v-2h1.6v2Zm0,2.3V62h1.6v2.1Zm1.3,2.1h-1.3v-2h1.6v1.7l-.3.3Zm1.2-56.8V8h1.7V9.4Zm0,2.2V10.4h1.7v1.2Zm0,2.3V12.6h1.7v1.3Zm0,2.3V14.8h1.7v1.4Zm0,2.2V17.1h1.7v1.3Zm0,2.3V19.3h1.7v1.4Zm0,2.3V21.6h1.7V23Zm0,2.3V23.8h1.7v1.5Zm0,2.3V26.1h1.7v1.4Zm0,2.3V28.3h1.7v1.6Zm0,2.2V30.5h1.7v1.6Zm0,2.4V32.8h1.7v1.7Zm0,2.2V35h1.7v1.7Zm0,2.3V37.3h1.7V39Zm0,2.3V39.5h1.7v1.8Zm0,2.3V41.8h1.7v1.8Zm0,2.2V44.1h1.7v1.7Zm0,2.4V46.3h1.7v1.8Zm0,2.2V48.6h1.7v1.8Zm0,2.3V50.8h1.7v1.9Zm0,2.3V53.1h1.7V55Zm0,2.3v-2h1.7v2Zm0,2.2v-2h1.7v2Zm0,2.3v-2h1.7v2Zm1.3,2c0,.1,0,.1-.1.1s-.1.1-.1.2h-1.1V62h1.7v1.4c0,.2-.2.3-.4.4Zm1.2-54.4V8h1.8V9.4Zm0,2.2V10.4h1.8v1.2Zm0,2.3V12.6h1.8v1.3Zm0,2.3V14.8h1.8v1.4Zm0,2.2V17.1h1.8v1.3Zm0,2.3V19.3h1.8v1.4Zm0,2.3V21.6h1.8V23Zm0,2.3V23.8h1.8v1.5Zm0,2.2V26.1h1.8v1.4Zm0,2.4V28.3h1.8v1.6Zm0,2.2V30.5h1.8v1.6Zm0,2.4V32.8h1.8v1.7Zm0,2.2V35h1.8v1.7Zm0,2.3V37.3h1.8V39Zm0,2.3V39.5h1.8v1.8Zm0,2.3V41.8h1.8v1.8Zm0,2.2V44.1h1.8v1.7Zm0,2.4V46.3h1.8v1.8Zm0,2.2V48.6h1.8v1.8Zm0,2.3V50.8h1.8v1.9Zm0,2.3V53.1h1.8V55Zm0,2.3v-2h1.8v2Zm0,2.2v-2h1.8v2Zm.8,1.6-.8,1.6V59.8h1.5l-.7,1.3Zm1.7-51.7V8h1.8V9.4Zm0,2.2V10.4h1.8v1.2Zm0,2.3V12.6h1.8v1.3Zm0,2.3V14.8h1.8v1.4Zm0,2.2V17.1h1.8v1.3Zm0,2.3V19.3h1.8v1.4Zm0,2.3V21.6h1.8V23Zm0,2.3V23.8h1.8v1.5Zm0,2.2V26.1h1.8v1.4Zm0,2.4V28.3h1.8v1.6Zm0,2.2V30.5h1.8v1.6Zm0,2.3V32.8h1.8v1.7Zm0,2.3V35h1.8v1.7Zm0,2.3V37.3h1.8V39Zm0,2.2V39.5h1.8v1.7Zm0,2.4V41.8h1.8v1.8Zm0,2.2V44.1h1.8v1.7Zm1.8,1.5a1.1,1.1,0,0,1-.1.8h-1.7V46.3h1.8Zm-.1,2.2c0,.3-.1.6-.1.9h-1.6V48.6h1.7v.9Zm-.3,2.4a2.4,2.4,0,0,1-.2.8h-1.2V50.8h1.6Zm-.4,2.3-.3.8h-.7V53H306C305.9,53.4,305.9,53.8,305.8,54.2Z" transform="translate(60.8)" fill="#fff"/><path d="M53,57.8l-.2-.4-.2-.3-.3-.9h1.2v3.3ZM52.5,8.1V6.7h1V8.1Zm0,2.2V9.1h1v1.2Zm0,2.3V11.3h1v1.3Zm0,2.3V13.6h1v1.3Zm0,2.2V15.8h1v1.3Zm0,2.3V18h1v1.4Zm0,2.3V20.3h1v1.4Zm0,2.3V22.5h1V24Zm0,2.3V24.8h1v1.5Zm0,2.3V27h1v1.6Zm0,2.2V29.3h1v1.5Zm0,2.4V31.5h1v1.7Zm0,2.2V33.7h1v1.7Zm0,2.3V36h1v1.7Zm0,2.3V38.2h1V40Zm0,2.3V40.5h1v1.8Zm0,2.2V42.8h1v1.7Zm0,2.4V45h1v1.9Zm0,2.2V47.3h1v1.8Zm0,2.3V49.5h1v1.9Zm0,2.3V51.8h1v1.9Zm0,2.3V54h1v2Zm2.1,4.7h1.5V63ZM55,8.1V6.7h1.1V8.1Zm0,2.2V9.1h1.1v1.2Zm0,2.3V11.3h1.1v1.3Zm0,2.3V13.6h1.1v1.3Zm0,2.2V15.8h1.1v1.3Zm0,2.3V18h1.1v1.4Zm0,2.3V20.3h1.1v1.4ZM55,24V22.5h1.1V24Zm0,2.3V24.8h1.1v1.5Zm0,2.3V27h1.1v1.6Zm0,2.2V29.3h1.1v1.5Zm0,2.4V31.5h1.1v1.7Zm0,2.2V33.7h1.1v1.7Zm0,2.3V36h1.1v1.7ZM55,40V38.2h1.1V40Zm0,2.3V40.5h1.1v1.8Zm0,2.2V42.8h1.1v1.7Zm0,2.4V45h1.1v1.9Zm0,2.2V47.3h1.1v1.8Zm0,2.3V49.5h1.1v1.9Zm0,2.3V51.8h1.1v1.9ZM55,56V54h1.1v2Zm0,2.2v-2h1.1v2Zm0,2.3v-2h1.1v2ZM57.5,8.1V6.7h1.2V8.1Zm0,2.2V9.1h1.2v1.2Zm0,2.3V11.3h1.2v1.3Zm0,2.3V13.6h1.2v1.3Zm0,2.2V15.8h1.2v1.3Zm0,2.3V18h1.2v1.4Zm0,2.3V20.3h1.2v1.4Zm0,2.3V22.5h1.2V24Zm0,2.3V24.8h1.2v1.5Zm0,2.3V27h1.2v1.6Zm0,2.2V29.3h1.2v1.5Zm0,2.4V31.5h1.2v1.7Zm0,2.2V33.7h1.2v1.7Zm0,2.3V36h1.2v1.7Zm0,2.3V38.2h1.2V40Zm0,2.3V40.5h1.2v1.8Zm0,2.2V42.8h1.2v1.7Zm0,2.4V45h1.2v1.9Zm0,2.2V47.3h1.2v1.8Zm0,2.3V49.5h1.2v1.9Zm0,2.3V51.8h1.2v1.9Zm0,2.3V54h1.2v2Zm0,2.2v-2h1.2v2Zm0,2.3v-2h1.2v2Zm0,2.3V60.7h1.2v2.1Zm.5,1.7-.5-.4V63h1.2v1.8ZM60,8.1V6.7h1.2V8.1Zm0,2.2V9.1h1.2v1.2Zm0,2.3V11.3h1.2v1.3Zm0,2.3V13.6h1.2v1.3Zm0,2.2V15.8h1.2v1.3Zm0,2.3V18h1.2v1.4Zm0,2.3V20.3h1.2v1.4ZM60,24V22.5h1.2V24Zm0,2.3V24.8h1.2v1.5Zm0,2.3V27h1.2v1.6Zm0,2.2V29.3h1.2v1.5Zm0,2.4V31.5h1.2v1.7Zm0,2.2V33.7h1.2v1.7Zm0,2.3V36h1.2v1.7ZM60,40V38.2h1.2V40Zm0,2.3V40.5h1.2v1.8Zm0,2.2V42.8h1.2v1.7Zm0,2.4V45h1.2v1.9Zm0,2.2V47.3h1.2v1.8Zm0,2.3V49.5h1.2v1.9Zm0,2.3V51.8h1.2v1.9ZM60,56V54h1.2v2Zm0,2.2v-2h1.2v2Zm0,2.3v-2h1.2v2Zm0,2.3V60.7h1.2v2.1ZM60,65V63h1.2v2Zm2.5-15.9V47.3h.7c0,.2.1.4.1.6v.3c0-.1.1.2.2.9Zm0,2.3V49.5h1.1a1.1,1.1,0,0,1,.2.8v1.1Zm0,2.3V51.8h1.3v1.9Zm0,2.3V54h1.3v2Zm0,2.2v-2h1.3v2Zm0,2.3v-2h1.3v2Zm0,2.3V60.7h1.3v2.1Zm0,2.2V63h1.3v2Zm.8,2.2h-.8v-2h1.3v2.2ZM65,56V54h1.4v2Zm0,2.2v-2h1.4v2Zm0,2.3v-2h1.4v2Zm0,2.3V60.7h1.4v2.1ZM65,65V63h1.4v2Zm0,2.4V65.2h1.4v2.2ZM67.4,56V53.9l.8.2h.7V56Zm0,2.2v-2h1.5v2Zm0,2.3v-2h1.5v2Zm0,2.3V60.7h1.5v2.1Zm0,2.2V63h1.5v2Zm0,2.4V65.2h1.5v2.2ZM70,56V54h1.5v2Zm0,2.2v-2h1.5v2Zm0,2.3v-2h1.5v2Zm0,2.3V60.7h1.5v2.1ZM70,65V63h1.5v2Zm0,2.4V65.2h1.5v2.2Zm2.5-13.7V52.2l.2-.3h1.2v1.9Zm0,2.3V54H74v2Zm0,2.2v-2H74v2Zm0,2.3v-2H74v2Zm0,2.3V60.7H74v2.1Zm0,2.2V63H74v2Zm1,2.4h-1V65.2H74v2.1Zm.1-16-.2-.7H74v.7ZM75,8.1V6.7h1.6V8.1Zm0,2.2V9.1h1.6v1.2Zm0,2.3V11.3h1.6v1.3Zm0,2.3V13.6h1.6v1.3Zm0,2.2V15.8h1.6v1.3Zm0,2.3V18h1.6v1.4Zm0,2.3V20.3h1.6v1.4ZM75,24V22.5h1.6V24Zm0,2.3V24.8h1.6v1.5Zm0,2.3V27h1.6v1.6Zm0,2.2V29.3h1.6v1.5Zm0,2.4V31.5h1.6v1.7Zm0,2.2V33.7h1.6v1.7Zm0,2.3V36h1.6v1.7ZM75,40V38.2h1.6V40Zm0,2.3V40.5h1.6v1.8Zm0,2.2V42.8h1.6v1.7Zm0,2.4V45h1.6v1.9Zm0,2.2V47.3h1.6v1.8Zm0,2.3V49.5h1.6v1.9Zm0,2.3V51.8h1.6v1.9ZM75,56V54h1.6v2Zm0,2.2v-2h1.6v2Zm0,2.3v-2h1.6v2Zm0,2.3V60.7h1.6v2.1ZM75,65V63h1.6v2Zm.9,1.5-.9.4V65.2h1.6v.9ZM77.5,8.1V6.7h1.7V8.1Zm0,2.2V9.1h1.7v1.2Zm0,2.3V11.3h1.7v1.3Zm0,2.3V13.6h1.7v1.3Zm0,2.2V15.8h1.7v1.3Zm0,2.3V18h1.7v1.4Zm0,2.3V20.3h1.7v1.4Zm0,2.3V22.5h1.7V24Zm0,2.3V24.8h1.7v1.5Zm0,2.3V27h1.7v1.6Zm0,2.2V29.3h1.7v1.5Zm0,2.4V31.5h1.7v1.7Zm0,2.2V33.7h1.7v1.7Zm0,2.3V36h1.7v1.7Zm0,2.3V38.2h1.7V40Zm0,2.3V40.5h1.7v1.8Zm0,2.2V42.8h1.7v1.7Zm0,2.4V45h1.7v1.9Zm0,2.2V47.3h1.7v1.8Zm0,2.3V49.5h1.7v1.9Zm0,2.3V51.8h1.7v1.9Zm0,2.3V54h1.7v2Zm0,2.2v-2h1.7v2Zm0,2.3v-2h1.7v2Zm0,2.3V60.7h1.7v2.1Zm1.3,2.1H77.5v-2h1.6v1.6l-.3.3ZM80,8.1V6.7h1.7V8.1Zm0,2.2V9.1h1.7v1.2Zm0,2.3V11.3h1.7v1.3Zm0,2.3V13.6h1.7v1.3Zm0,2.2V15.8h1.7v1.3Zm0,2.3V18h1.7v1.4Zm0,2.3V20.3h1.7v1.4ZM80,24V22.5h1.7V24Zm0,2.3V24.8h1.7v1.5Zm0,2.3V27h1.7v1.6Zm0,2.2V29.3h1.7v1.5Zm0,2.4V31.5h1.7v1.7Zm0,2.2V33.7h1.7v1.7Zm0,2.3V36h1.7v1.7ZM80,40V38.2h1.7V40Zm0,2.3V40.5h1.7v1.8Zm0,2.2V42.8h1.7v1.7Zm0,2.4V45h1.7v1.9Zm0,2.2V47.3h1.7v1.8Zm0,2.3V49.5h1.7v1.9Zm0,2.3V51.8h1.7v1.9ZM80,56V54h1.7v2Zm0,2.2v-2h1.7v2Zm0,2.3v-2h1.7v2Zm1.4,2h-.2v.2H80v-2h1.7v1.4ZM82.5,8.1V6.7h1.8V8.1Zm0,2.2V9.1h1.8v1.2Zm0,2.3V11.3h1.8v1.3Zm0,2.3V13.6h1.8v1.3Zm0,2.2V15.8h1.8v1.3Zm0,2.3V18h1.8v1.4Zm0,2.3V20.3h1.8v1.4Zm0,2.3V22.5h1.8V24Zm0,2.3V24.8h1.8v1.5Zm0,2.3V27h1.8v1.6Zm0,2.2V29.3h1.8v1.5Zm0,2.4V31.5h1.8v1.7Zm0,2.2V33.7h1.8v1.7Zm0,2.3V36h1.8v1.7Zm0,2.3V38.2h1.8V40Zm0,2.3V40.5h1.8v1.8Zm0,2.2V42.8h1.8v1.7Zm0,2.4V45h1.8v1.9Zm0,2.2V47.3h1.8v1.8Zm0,2.3V49.5h1.8v1.9Zm0,2.3V51.8h1.8v1.9Zm0,2.3V54h1.8v2Zm0,2.2v-2h1.8v2Zm.8,1.6-.8,1.6V58.5H84ZM85,8.1V6.7h1.9V8.1Zm0,2.2V9.1h1.9v1.2Zm0,2.3V11.3h1.9v1.3Zm0,2.3V13.6h1.9v1.3Zm0,2.2V15.8h1.9v1.3Zm0,2.3V18h1.9v1.4Zm0,2.3V20.3h1.9v1.4ZM85,24V22.5h1.9V24Zm0,2.3V24.8h1.9v1.5Zm0,2.3V27h1.9v1.6Zm0,2.2V29.3h1.9v1.5Zm0,2.4V31.5h1.9v1.7Zm0,2.2V33.7h1.9v1.7Zm0,2.3V36h1.9v1.7ZM85,40V38.2h1.9V40Zm0,2.3V40.5h1.9v1.8Zm0,2.2V42.8h1.9v1.7ZM86.9,46c0,.3-.1.6-.1.8H85V45h1.9Zm-.2,2.2c0,.3-.1.6-.1.9H85V47.3h1.7Zm-.3,2.4a1.1,1.1,0,0,1-.2.8H85V49.5h1.6ZM86,52.9l-.3.8H85V51.8h1.2C86.1,52.2,86.1,52.6,86,52.9Z" transform="translate(60.8)" fill="#fff"/><path d="M90.5,7V5.7h1.2V7Zm0,2.4V8.1h1.2V9.4Zm0,2.3V10.4h1.2v1.3Zm0,2.4V12.7h1.2v1.4Zm0,2.4V15.1h1.2v1.4Zm0,2.4V17.4h1.2v1.5Zm0,2.3V19.7h1.2v1.5Zm0,2.4V22.1h1.2v1.5Zm0,2.4V24.4h1.2V26Zm0,2.4V26.8h1.2v1.6Zm0,2.3V29.1h1.2v1.6Zm0,2.4V31.4h1.2v1.8Zm0,2.4V33.8h1.2v1.7Zm0,2.4V36.1h1.2v1.8Zm0,2.3V38.4h1.2v1.8Zm0,2.4V40.8h1.2v1.8Zm0,2.4V43.2h1.2V45Zm0,2.4V45.5h1.2v1.9Zm0,2.3V47.8h1.2v1.9Zm0,2.4V50.2h1.2v2Zm0,2.4v-2h1.2v2Zm0,2.4V54.8h1.2v2.1Zm0,2.3v-2h1.2v2.1Zm0,2.4V59.5h1.2v2.1Zm0,2.4V61.8h1.2V64Zm0,2.3V64.2h1.2v2.1Zm0,1.8V66.5h1.2v1.7ZM93.2,7V5.7h1.2V7Zm0,2.4V8.1h1.2V9.4Zm0,2.3V10.4h1.2v1.3Zm0,2.4V12.7h1.2v1.4Zm0,2.4V15.1h1.2v1.4Zm0,2.4V17.4h1.2v1.5Zm0,2.3V19.7h1.2v1.5Zm0,2.4V22.1h1.2v1.5Zm0,2.4V24.4h1.2V26Zm0,2.4V26.8h1.2v1.6Zm0,2.3V29.1h1.2v1.6Zm0,2.4V31.4h1.2v1.8Zm0,2.4V33.8h1.2v1.7Zm0,2.4V36.1h1.2v1.8Zm0,2.3V38.4h1.2v1.8Zm0,2.4V40.8h1.2v1.8Zm0,2.4V43.2h1.2V45Zm0,2.4V45.5h1.2v1.9Zm0,2.3V47.8h1.2v1.9Zm0,2.4V50.2h1.2v2Zm0,2.4v-2h1.2v2Zm0,2.4V54.8h1.2v2.1Zm0,2.3v-2h1.2v2.1Zm0,2.4V59.5h1.2v2.1Zm0,2.4V61.8h1.2V64Zm0,2.3V64.2h1.2v2.1Zm0,1.8V66.5h1.2v1.7ZM95.9,7V5.7h1.3V7Zm0,2.4V8.1h1.3V9.4Zm0,2.3V10.4h1.3v1.3Zm0,2.4V12.7h1.3v1.4Zm0,2.4V15.1h1.3v1.4Zm0,2.4V17.4h1.3v1.5Zm0,2.3V19.7h1.3v1.5Zm0,2.4V22.1h1.3v1.5Zm0,2.4V24.4h1.3V26Zm0,2.4V26.8h1.3v1.6Zm0,2.3V29.1h1.3v1.6Zm0,2.4V31.4h1.3v1.8Zm0,2.4V33.8h1.3v1.7Zm0,2.4V36.1h1.3v1.8Zm0,2.3V38.4h1.3v1.8Zm0,2.4V40.8h1.3v1.8Zm0,2.4V43.2h1.3V45Zm0,2.4V45.5h1.3v1.9Zm0,2.3V47.8h1.3v1.9Zm0,2.4V50.2h1.3v2Zm0,2.4v-2h1.3v2Zm0,2.4V54.8h1.3v2.1Zm0,2.3v-2h1.3v2.1Zm0,2.4V59.5h1.3v2.1Zm0,2.4V61.8h1.3V64Zm0,2.3V64.2h1.3v2.1Zm0,1.8V66.5h1.3v1.7ZM98.6,7V5.7h1.3V7Zm0,2.4V8.1h1.3V9.4Zm0,2.3V10.4h1.3v1.3Zm0,2.4V12.7h1.3v1.4Zm0,2.4V15.1h1.3v1.4Zm0,2.4V17.4h1.3v1.5Zm0,2.3V19.7h1.3v1.5Zm0,2.4V22.1h1.3v1.5Zm0,2.4V24.4h1.3V26Zm0,2.4V26.8h1.3v1.6Zm0,2.3V29.1h1.3v1.6Zm0,2.4V31.4h1.3v1.8Zm0,2.4V33.8h1.3v1.7Zm0,2.4V36.1h1.3v1.8Zm0,2.3V38.4h1.3v1.8Zm0,2.4V40.8h1.3v1.8Zm0,2.4V43.2h1.3V45Zm0,2.4V45.5h1.3v1.9Zm0,2.3V47.8h1.3v1.9Zm0,2.4V50.2h1.3v2Zm0,2.4v-2h1.3v2Zm0,2.4V54.8h1.3v2.1Zm0,2.3v-2h1.3v2.1Zm0,2.4V59.5h1.3v2.1Zm0,2.4V61.8h1.3V64Zm0,2.3V64.2h1.3v2.1Zm0,1.8V66.5h1.3v1.7ZM101.3,7V5.7h1.4V7Zm0,2.4V8.1h1.4V9.4Zm0,2.3V10.4h1.4v1.3Zm0,2.4V12.7h1.4v1.4Zm0,2.3V15.1h1.4v1.4Zm.8,2.4h-.8V17.4h1.4v1.4Zm-.8,2.4V19.7h.8v1.5Zm0,2.4V22.1h.8v1.5Zm0,2.3V24.4h.8V26Zm0,2.5V26.8h.8v1.6Zm0,2.3V29.1h1.4v1.6Zm0,2.4V31.4h1.4v1.8Zm0,2.3V33.8h1.4v1.7Zm0,2.5V36.1h1.4v1.8Zm0,2.3V38.4h1.4v1.8Zm0,2.4V40.8h1.4v1.8Zm0,2.4V43.1h.9V45Zm0,2.4V45.5h.9v1.9Zm0,2.3V47.8h.9v1.9Zm0,2.4V50.2h.9v2Zm0,2.3V52.5h.9v2Zm0,2.5V54.8h1.4v2.1Zm0,2.3v-2h1.4v2.1Zm0,2.3v-2h1.4v2.1Zm0,2.5V61.8h1.4V64Zm0,2.3V64.2h1.4v2.1Zm0,1.8V66.5h1.4v1.7ZM104,7V5.7h1.5V7Zm0,2.4V8.1h1.5V9.4Zm0,2.3V10.4h1.5v1.3Zm0,2.4V12.7h1.5v1.4Zm0,2.4V15.1h1.5v1.4Zm0,2.3V17.4h1.5v1.4Zm0,11.9V29.1h1.5v1.6Zm0,2.4V31.4h1.5v1.8Zm0,2.4V33.8h1.5v1.7Zm0,2.4V36.1h1.5v1.8Zm0,2.3V38.4h1.5v1.8Zm0,2.5V40.8h1.5v1.9Zm0,14.2V54.8h1.5v2.1Zm0,2.3v-2h1.5v2.1Zm0,2.4V59.5h1.5v2.1Zm0,2.4V61.8h1.5V64Zm0,2.3V64.2h1.5v2.1Zm0,1.8V66.5h1.5v1.7ZM106.6,7V5.7h1.6V7Zm0,2.4V8.1h1.6V9.4Zm0,2.3V10.4h1.6v1.3Zm0,2.4V12.7h1.6v1.4Zm0,2.4V15.1h1.6v1.4Zm0,2.4V17.4h1.6v1.5Zm0,11.8V29.1h1.6v1.6Zm0,2.4V31.4h1.6v1.8Zm0,2.4V33.8h1.6v1.7Zm0,2.4V36.1h1.6v1.8Zm0,2.3V38.4h1.6v1.8Zm0,2.4V40.8h1.6v1.8Zm0,14.3V54.8h1.6v2.1Zm0,2.3v-2h1.6v2.1Zm0,2.4V59.5h1.6v2.1Zm0,2.4V61.8h1.6V64Zm0,2.3V64.2h1.6v2.1Zm0,1.8V66.5h1.6v1.7ZM109.3,7V5.7H111V7Zm0,2.4V8.1H111V9.4Zm0,2.3V10.4H111v1.3Zm0,2.4V12.7H111v1.4Zm0,2.4V15.1H111v1.4Zm0,2.4V17.4H111v1.5Zm0,11.8V29.1H111v1.6Zm0,2.4V31.4H111v1.8Zm0,2.4V33.8H111v1.7Zm0,2.4V36.1H111v1.8Zm0,2.3V38.4H111v1.8Zm0,2.4V40.8H111v1.8Zm0,14.3V54.8H111v2.1Zm0,2.3v-2H111v2.1Zm0,2.4V59.5H111v2.1Zm0,2.4V61.8H111V64Zm0,2.3V64.2H111v2.1Zm.8,1.8h-.8V66.5H111v1.6Zm-.6-39.7.6-.9h.2s0-.2.1-.2l.6-.8v2Zm.9-8h-.2v-.7h.5v.7Zm-.1,34.1v-1h.1c0-.1,0-.1.1-.1h.5v1.1ZM112,7V5.7h1.7V7Zm0,2.4V8.1h1.7V9.4Zm0,2.3V10.4h1.7v1.3Zm0,2.4V12.7h1.7v1.4Zm0,2.4V15.1h1.7v1.4Zm0,2.4V17.4h1.7v1.5Zm0,2.3V19.7h1.7v1.5Zm0,2.4V22.1h1.7v1.5Zm0,2.4V24.4h1.7V26Zm0,2.4V26.8h1.7v1.6Zm0,2.3V29.1h1.7v1.6Zm0,2.4V31.4h1.7v1.8Zm0,2.4V33.8h1.7v1.7Zm0,2.4V36.1h1.7v1.8Zm0,2.3V38.4h1.7v1.8Zm0,2.4V40.8h1.7v1.8Zm0,2.4V43.2h1.7V45Zm0,9.5v-2h1.7v2Zm0,2.4V54.8h1.7v2.1Zm0,2.3v-2h1.7v2.1Zm0,2.4V59.5h1.7v2.1Zm0,2.4V61.8h1.7V64Zm0,2.3V64.2h1.7v2.1Zm.9,1.5H112V66.5h1.7v1.3Zm-.6-15.7.3-.6.3-.7.3-.9.5-1.4v3.6Zm.9-3.9c-.1-.4-.1-.7-.2-1s0-.3-.1-.4v-.2c0-.1-.1-.2-.1-.3l-.4-.8h1.3v4.6C113.5,49.3,113.3,48.7,113.2,48.2ZM114.7,7V5.6l.5.4h.2V7Zm0,2.4V8.1h1.8V9.4Zm0,2.3V10.4h1.8v1.3Zm0,2.4V12.7h1.8v1.4Zm0,2.4V15.1h1.8v1.4Zm0,2.4V17.4h1.8v1.5Zm0,2.3V19.7h1.8v1.5Zm0,2.4V22.1h1.8v1.5Zm0,2.4V24.4h1.8V26Zm0,2.4V26.8h1.8v1.6Zm0,2.3V29.1h1.8v1.6Zm0,2.4V31.4h1.8v1.8Zm0,2.4V33.8h1.8v1.7Zm0,2.4V36.1h1.8v1.8Zm0,2.3V38.4h1.8v1.8Zm0,2.4V40.8h1.8v1.8Zm0,2.4V43.2h1.8V45Zm0,2.4V45.5h1.8v1.9Zm0,2.3V47.8h1.8v1.9Zm0,2.4V50.2h1.8v2Zm0,2.4v-2h1.8v2Zm0,2.4V54.8h1.8v2.1Zm0,2.3v-2h1.8v2.1Zm0,2.4V59.5h1.8v2.1Zm0,2.4V61.8h1.8V64Zm0,2.3V64.2h1.8v2.1Zm2.7-56.9V8.1h1.8V9.4Zm0,2.3V10.4h1.8v1.3Zm0,2.4V12.7h1.8v1.4Zm0,2.4V15.1h1.8v1.4Zm0,2.4V17.4h1.8v1.5Zm0,2.3V19.7h1.8v1.5Zm0,2.4V22.1h1.8v1.5Zm0,2.4V24.4h1.8V26Zm0,2.4V26.8h1.8v1.6Zm0,2.3V29.1h1.8v1.6Zm0,2.4V31.4h1.8v1.8Zm0,2.4V33.8h1.8v1.7Zm0,2.4V36.1h1.8v1.8Zm0,2.3V38.4h1.8v1.8Zm0,2.4V40.8h1.8v1.8Zm0,2.4V43.2h1.8V45Zm0,2.4V45.5h1.8v1.9Zm0,2.3V47.8h1.8v1.9Zm0,2.4V50.2h1.8v2Zm0,2.4v-2h1.8v2Zm0,2.4V54.8h1.8v2.1Zm0,2.3v-2h1.8v2.1Zm0,2.4V59.5h1.8v2.1Zm0,2.4V61.8h1.8V64Zm1.4,2.1-.3.2h-1.1V64.2h1.8v1.7Zm1.3-54.4V10.4h1.1l.9,1.3Zm0,2.4V12.7H122v1.4Zm0,2.4V15.1H122v1.4Zm0,2.4V17.4H122v1.5Zm0,2.3V19.7H122v1.5Zm0,2.4V22.1H122v1.5Zm0,2.4V24.4H122V26Zm0,2.4V26.8H122v1.6Zm0,2.3V29.1H122v1.6Zm1.5,1.9-.4.6h-1.1V31.4h2.1a3.4,3.4,0,0,1-.6,1.2Zm-1.5,5.3V36.3l2.8,1.6Zm0,2.3V38.4H122v1.8Zm0,2.5V40.8H122v1.9Zm0,2.3V43.2H122V45Zm0,2.4V45.5H122v1.9Zm0,2.3V47.8H122v1.9Zm0,2.5v-2H122v2Zm0,2.3v-2H122v2Zm0,2.4V54.8H122v2.1Zm0,2.3v-2H122v2.1Zm0,2.4V59.5H122v2.1Zm0,2.4V61.8H122V64Zm2.6-45.1V17.4h1.2V18l.5.9Zm0,2.3V19.7h1.4c0,.3.1.6.1.8v.7Zm0,2.4V22.1h1.6v1.5Zm1.3,1.7a1.7,1.7,0,0,1-.1.7h-1.2V24.4h1.4v.9Zm-.4,2.4a1.9,1.9,0,0,1-.2.7h-.7V26.8h1.1A2.9,2.9,0,0,1,123.6,27.7Zm-.9,12.5V38.5l.8.7.8,1Zm0,2.4V40.8h2v1.8Zm0,2.4V43.2h2V45Zm0,2.4V45.5h2v1.9Zm0,2.3V47.8h2v1.9Zm0,2.4V50.2h2v2Zm0,2.4v-2h2v2Zm0,2.4V54.8h2v2.1Zm0,2.3v-2h2v2.1Zm1.5,1.6a2,2,0,0,1-.4.8h-1V59.5h2.1Zm1.3-13.4V45.5h.8v.6a.4.4,0,0,1,.1.3v1Zm0,2.3V47.8h1.1v1.9Zm1.1,1.5v1h-1.1v-2h1.1Zm-.2,2.1v.3c-.1.3-.1.6-.2.9h-.7v-2h1.1Z" transform="translate(60.8)" fill="#fff"/><path d="M126.4,8.6h.9v3.9Zm0-1V6.2h.9V7.6ZM129.2,26V24.5h.9V26Zm-.1-18.4V6.2h.9V7.6Zm0,2.3V8.6h.9V9.9Zm0,2.2V10.9h.9v1.2Zm0,2.4V13.1h.9v1.4Zm0,2.2V15.4h.9v1.4Zm0,2.4V17.7h.9v1.4Zm0,2.3V19.9h.9v1.5Zm0,2.3V22.2h.9v1.5ZM132,42.2l-.3-1.7h1v1.7Zm-.3-34.6V6.2h1V7.6Zm0,2.3V8.6h1V9.9Zm0,2.2V10.9h1v1.2Zm0,2.4V13.1h1v1.4Zm0,2.2V15.4h1v1.4Zm0,2.4V17.7h1v1.4Zm0,2.3V19.9h1v1.5Zm0,2.3V22.2h1v1.5Zm0,2.3V24.5h1V26Zm0,2.4V26.8h1v1.6Zm0,2.2V29h1v1.6Zm0,2.4V31.3h1V33Zm0,2.2V33.6h1v1.6Zm0,2.4V35.8h1v1.8Zm0,2.3V38.1h1v1.8Zm2.7-32.3V6.2h1V7.6Zm0,2.3V8.6h1V9.9Zm0,2.2V10.9h1v1.2Zm0,2.4V13.1h1v1.4Zm0,2.2V15.4h1v1.4Zm0,2.4V17.7h1v1.4Zm0,2.3V19.9h1v1.5Zm0,2.3V22.2h1v1.5Zm0,2.3V24.5h1V26Zm0,2.4V26.8h1v1.6Zm0,2.2V29h1v1.6Zm0,2.4V31.3h1V33Zm0,2.2V33.6h1v1.6Zm0,2.4V35.8h1v1.8Zm0,2.3V38.1h1v1.8Zm0,2.3V40.5h1v1.7Zm0,2.3V42.7h1v1.8Zm0,2.3V45h1v1.9Zm0,2.3V47.3h1v1.8Zm0,2.4v-2h1v2Zm0,2.3v-2h1v2Zm0,2.3v-2h1v2Zm0,2.3V56.3h1v2.1Zm.3,1.3V58.6h.8v1ZM137,7.6V6.2h1.1V7.6Zm0,2.3V8.6h1.1V9.9Zm0,2.2V10.9h1.1v1.2Zm0,2.4V13.1h1.1v1.4Zm0,2.2V15.4h1.1v1.4Zm0,2.4V17.7h1.1v1.4Zm0,2.3V20h1.1v1.4Zm0,2.3V22.2h1.1v1.5Zm0,2.3V24.5h1.1V26Zm0,2.4V26.8h1.1v1.6Zm0,2.2V29h1.1v1.6Zm0,2.4V31.3h1.1V33Zm0,2.3V33.6h1.1v1.7Zm0,2.3V35.8h1.1v1.8Zm0,2.3V38.1h1.1v1.8Zm0,2.3V40.5h1.1v1.7Zm0,2.3V42.7h1.1v1.8Zm0,2.4V45h1.1v1.9Zm0,2.2V47.3h1.1v1.8Zm0,2.4v-2h1.1v2Zm0,2.3v-2h1.1v2Zm0,2.3v-2h1.1v2Zm0,2.3V56.3h1.1v2.1Zm0,2.2v-2h1.1v2Zm0,2.4V60.9h1.1V63Zm0,2.3V63.2h1.1v2.1Zm0,1.7V65.4h1.1V67Zm2.7-50.2V15.4h.7l.2,1.4Zm0,2.3V17.7h1.1v1.4Zm0,2.3V20h1.1v1.4Zm0,2.3V22.2h1.1v1.5Zm0,2.3V24.5h1.1V26Zm0,2.4V26.8h1.1v1.6Zm0,2.2V29h1.1v1.6Zm0,2.4V31.3h1.1V33Zm0,2.3V33.6h1.1v1.7Zm0,2.3V35.8h1.1v1.8Zm0,2.3V38.1h1.1v1.8Zm0,2.3V40.5h1.1v1.7Zm0,2.3V42.7h1.1v1.8Zm0,2.4V45h1.1v1.9Zm0,2.2V47.3h1.1v1.8Zm0,2.4v-2h1.1v2Zm0,2.3v-2h1.1v2Zm0,2.3v-2h1.1v2Zm0,2.3V56.3h1.1v2.1Zm0,2.2v-2h1.1v2Zm0,2.4V60.9h1.1V63Zm0,2.3V63.2h1.1v2.1Zm0,1.7V65.4h1.1V67Zm2.6-29.4V35.8h.9l.3,1.8Zm0,2.3V38.1h1.2v1.8Zm0,2.3V40.5h1.2v1.7Zm0,2.3V42.7h1.2v1.8Zm0,2.4V45h1.2v1.9Zm0,2.2V47.3h1.2v1.8Zm0,2.4v-2h1.2v2Zm0,2.3v-2h1.2v2Zm0,2.3v-2h1.2v2Zm0,2.3V56.3h1.2v2.1Zm0,2.2v-2h1.2v2Zm0,2.4V60.9h1.2V63Zm0,2.3V63.2h1.2v2.1Zm0,1.7V65.4h1.2V67ZM145,37.6V35.8h1.1v1.8Zm0,2.3V38.1h1.2v1.8Zm0,2.3V40.5h1.2v1.7Zm0,2.3V42.7h1.2v1.8Zm0,2.3V45h1.2v1.9Zm0,2.3V47.3h1.2v1.8Zm0,2.4v-2h1.2v2Zm0,2.3v-2h1.2v2Zm0,2.3v-2h1.2v2Zm0,2.3V56.3h1.2v2.1Zm0,2.2v-2h1.2v2Zm0,2.4V60.9h1.2V63Zm0,2.3V63.2h1.2v2.1Zm0,1.7V65.4h1.2V67Zm.1-31.8.4-1.6h.7v1.6Zm2.5-16.1V17.7h1.3v1.4Zm0,2.3V19.9h1.3v1.5Zm0,2.3V22.2h1.3v1.5Zm0,2.3V24.5h1.3V26Zm0,2.4V26.8h1.3v1.6Zm0,2.2V29h1.3v1.6Zm0,2.4V31.3h1.3V33Zm0,2.2V33.6h1.3v1.6Zm0,2.4V35.8h1.3v1.8Zm0,2.3V38.1h1.3v1.8Zm0,2.3V40.5h1.3v1.7Zm0,2.3V42.7h1.3v1.8Zm0,2.3V45h1.3v1.9Zm0,2.3V47.3h1.3v1.8Zm0,2.4v-2h1.3v2Zm0,2.3v-2h1.3v2Zm0,2.3v-2h1.3v2Zm0,2.3V56.3h1.3v2.1Zm0,2.2v-2h1.3v2Zm0,2.4V60.9h1.3V63Zm0,2.3V63.2h1.3v2.1Zm0,1.7V65.4h1.3V67Zm.1-50.2.3-1.4h.9v1.4Zm.4-2.3.8-5v5Zm2.2-6.9V6.2h1.3V7.6Zm0,2.3V8.6h1.3V9.9Zm0,2.2V10.9h1.3v1.2Zm0,2.4V13.1h1.3v1.4Zm0,2.3V15.4h1.3v1.4Zm0,2.3V17.7h1.3v1.4Zm0,2.3V20h1.3v1.4Zm0,2.3V22.2h1.3v1.5Zm0,2.3V24.5h1.3V26Zm0,2.4V26.8h1.3v1.6Zm0,2.2V29h1.3v1.6Zm0,2.4V31.3h1.3V33Zm0,2.3V33.6h1.3v1.7Zm0,2.3V35.8h1.3v1.8Zm0,2.3V38.1h1.3v1.8Zm0,2.3V40.5h1.3v1.7Zm0,2.3V42.7h1.3v1.8Zm0,2.4V45h1.3v1.9Zm0,2.2V47.3h1.3v1.8Zm0,2.4v-2h1.3v2Zm0,2.3v-2h1.3v2Zm0,2.3v-2h1.3v2Zm0,2.3V56.3h1.3v2.1Zm0,2.2v-2h1.3v2Zm0,2.4V60.9h1.3V63Zm0,2.3V63.2h1.3v2.1Zm1.1,1.7h-1.1V65.4h1.3Zm1.5-59.4V6.2h1.5V7.6Zm0,2.3V8.6h1.5V9.9Zm0,2.2V10.9h1.5v1.2Zm0,2.4V13.1h1.5v1.4Zm0,2.3V15.4h1.5v1.4Zm0,2.3V17.7h1.5v1.4Zm0,2.3V20h1.5v1.4Zm0,2.3V22.2h1.5v1.5Zm0,2.3V24.5h1.5V26Zm0,2.4V26.8h1.5v1.6Zm0,2.2V29h1.5v1.6Zm0,2.4V31.3h1.5V33Zm0,2.3V33.6h1.5v1.7Zm0,2.3V35.8h1.5v1.8Zm0,2.3V38.1h1.5v1.8Zm0,2.3V40.5h1.5v1.7Zm0,2.3V42.7h1.5v1.8Zm1.3,2.4h-1.3V45h1.5v1Zm-.3,2.2h-1V47.3h1.3Zm-.3,2.4h-.7v-2h1Zm1.9-43.9V6.2H157V7.6Zm0,2.3V8.6H157V9.9Zm0,2.2V10.9H157v1.2Zm0,2.4V13.1H157v1.4Zm0,2.2V15.4H157v1.4Zm0,2.4V17.7H157v1.4Zm0,2.3V20H157v1.4Zm0,2.3V22.2H157v1.5Zm0,2.3V24.5H157V26Zm1.3,2.4h-1.3V26.8H157v1.6Zm-.2,2.2h-1.1V29h1.2Zm-.3,2.4h-.8V31.3h.9Zm2.1,9.2-.3-1.7h1.7v1.7Zm-.2-34.6V6.2h1.6V7.6Zm0,2.3V8.6h1.6V9.9Zm0,2.2V10.9h1.6v1.2Zm0,2.4V13.1h1.6v1.4Zm0,2.2V15.4h1.6v1.4Zm0,2.4V17.7h1.6v1.4Zm0,2.3V19.9h1.6v1.5Zm0,2.3V22.2h1.6v1.5Zm0,2.3V24.5h1.6V26Zm0,2.4V26.8h1.6v1.6Zm0,2.2V29h1.6v1.6Zm0,2.4V31.3h1.6V33Zm0,2.2V33.6h1.6v1.6Zm0,2.4V35.8h1.6v1.8Zm0,2.3V38.1h1.6v1.8Zm.6,4.6-.4-1.8h1.4v1.8Zm.3,2.3-.3-1.8h1v1.9Zm1.7-39.2V6.2h1.6V7.6Zm0,2.3V8.6h1.6V9.9Zm0,2.2V10.9h1.6v1.2Zm0,2.4V13.1h1.6v1.4Zm0,2.2V15.4h1.6v1.4Zm0,2.4V17.7h1.6v1.4Zm0,2.3V19.9h1.6v1.5Zm0,2.3V22.2h1.6v1.5Zm0,2.3V24.5h1.6V26Zm0,2.4V26.8h1.6v1.6Zm0,2.2V29h1.6v1.6Zm0,2.4V31.3h1.6V33Zm0,2.2V33.6h1.6v1.6Zm0,2.4V35.8h1.6v1.8Zm0,2.3V38.1h1.6v1.8Zm0,2.3V40.5h1.6v1.7Zm0,2.3V42.7h1.6v1.8Zm0,2.3V45h1.6v1.9Zm0,2.3V47.3h1.6v1.8Zm0,2.4v-2h1.6v2Zm0,2.3v-2h1.6v2Zm0,2.3v-2h1.6v2Zm0,2.3V56.3h1.6v2.1Zm.4,2.2-.4-2h1.6v2Zm.3,2.4-.3-2.1h1.2V63Zm.2,1.8-.2-1.6h.9v1.6Zm1.7-57.2V6.2h1.3l.2,1.4Zm0,2.3V8.6H165l.3,1.3Zm0,2.2V10.9h1.8v1.2Zm0,2.4V13.1h1.8v1.4Zm0,2.2V15.4h1.8v1.4Zm0,2.4V17.7h1.8v1.4Zm0,2.3V19.9h1.8v1.5Zm0,2.3V22.2h1.8v1.5Zm0,2.3V24.5h1.8V26Zm0,2.4V26.8h1.8v1.6Zm0,2.2V29h1.8v1.6Zm0,2.4V31.3h1.8V33Zm0,2.2V33.6h1.8v1.6Zm0,2.4V35.8h1.8v1.8Zm0,2.3V38.1h1.8v1.8Zm0,2.3V40.5h1.8v1.7Zm0,2.3V42.7h1.8v1.8Zm0,2.3V45h1.8v1.9Zm0,2.3V47.3h1.8v1.8Zm0,2.4v-2h1.8v2Zm0,2.3v-2h1.8v2Zm0,2.3v-2h1.8v2Zm0,2.3V56.3h1.8v2.1Zm0,2.2v-2h1.8v2Zm0,2.4V60.9h1.8V63Zm0,2.3V63.2h1.8v2.1Zm0,1.7V65.4h1.8V67Zm2.7-43.3V22.2h.8l.2,1.5Zm0,2.3V24.5h1.1l.2,1.5Zm0,2.4V26.8h1.4l.3,1.6Zm0,2.2V29h1.7v1.6Zm0,2.4V31.3h1.7V33Zm0,2.2V33.6h1.7v1.6Zm0,2.4V35.8h1.7v1.8Zm0,2.3V38.1h1.7v1.8Zm0,2.3V40.5h1.7v1.7Zm0,2.3V42.7h1.7v1.8Zm0,2.3V45h1.7v1.9Zm0,2.3V47.3h1.7v1.8Zm0,2.4v-2h1.7v2Zm0,2.3v-2h1.7v2Zm0,2.3v-2h1.7v2Zm0,2.3V56.3h1.7v2.1Zm0,2.2v-2h1.7v2Zm0,2.4V60.9h1.7V63Zm0,2.3V63.2h1.7v2.1Zm0,1.7V65.4h1.7V67Zm2.6-24.8V40.5h.8v1.7Zm0,2.3V42.7h1l.3,1.8Zm0,2.3V45h1.9v1.9Zm0,2.3V47.3h1.9v1.8Zm0,2.4v-2h1.9v2Zm0,2.3v-2h1.9v2Zm0,2.3v-2h1.9v2Zm0,2.3V56.3h1.9v2.1Zm0,2.2v-2h1.9v2Zm0,2.4V60.9h1.9V63Zm0,2.3V63.2h1.9v2.1Zm0,1.7V65.4h1.9V67Zm1-22.5c.1-.4.1-.9.2-1.3s.4-2.1.7-3.1v4.4ZM171.3,33v-.9l.2-.8h1.7V33Zm0,2.2V33.6h1.9v1.6Zm0,2.4V35.8h1.9v1.8Zm0,2.3V38.1h1.9v1.8Zm0,2.3V40.5h1.9v1.7Zm0,2.3V42.7h1.9v1.8Zm0,2.3V45h1.9v1.9Zm0,2.3V47.3h1.9v1.8Zm0,2.4v-2h1.9v2Zm0,2.3v-2h1.9v2Zm0,2.3v-2h1.9v2Zm0,2.3V56.3h1.9v2.1Zm0,2.2v-2h1.9v2Zm0,2.4V60.9h1.9V63Zm0,2.3V63.2h1.9v2.1Zm0,1.7V65.4h1.9V67Zm.3-36.4.2-1.6h1.4v1.6Zm.2-2.2.4-1.6h1v1.6Zm.4-2.4.2-1.5h.8V26ZM174,12.1l.3-1.2H176v1.2Zm0,2.4V13.1h2v1.4Zm0,2.2V15.4h2v1.4Zm0,2.4V17.7h2v1.4Zm0,2.3V19.9h2v1.5Zm0,2.3V22.2h2v1.5Zm0,2.3V24.5h2V26Zm0,2.4V26.8h2v1.6Zm0,2.2V29h2v1.6Zm0,2.4V31.3h2V33Zm0,2.2V33.6h2v1.6Zm0,2.4V35.8h2v1.8Zm0,2.3V38.1h2v1.8Zm0,2.3V40.5h2v1.7Zm0,2.3V42.7h2v1.8Zm0,2.3V45h2v1.9Zm0,2.3V47.3h2v1.8Zm0,2.4v-2h2v2Zm0,2.3v-2h2v2Zm0,2.3v-2h2v2Zm0,2.3V56.3h2v2.1Zm0,2.2v-2h2v2Zm0,2.4V60.9h2V63Zm0,2.3V63.2h2v2.1Zm0,1.7V65.4h2V67Zm.3-57.1.3-1.3H176V9.9Zm.4-2.3.2-1.4H176V7.6Zm1.9,0V6.2h2.1V7.6Zm0,2.3V8.6h2.1V9.9Zm0,2.2V10.9h2.1v1.2Zm0,2.4V13.1h2.1v1.4Zm0,2.2V15.4h2.1v1.4Zm0,2.4V17.7h2.1v1.4Zm0,2.3V19.9h2.1v1.5Zm0,2.3V22.2h2.1v1.5Zm0,2.3V24.5h2.1V26Zm0,2.4V26.8h2.1v1.6Zm0,2.2V29h2.1v1.6Zm0,2.4V31.3h2.1V33Zm0,2.2V33.6h2.1v1.6Zm0,2.4V35.8h2.1v1.8Zm0,2.3V38.1h2.1v1.8Zm0,2.3V40.5h2.1v1.7Zm0,2.3V42.7h2.1v1.8Zm0,2.3V45h2.1v1.9Zm0,2.3V47.3h2.1v1.8Zm0,2.4v-2h2.1v2Zm0,2.3v-2h2.1v2Zm0,2.3v-2h2.1v2Zm0,2.3V56.3h2.1v2.1Zm1.9,2.2h-1.9v-2h2.1Zm-.4,2.4h-1.5V60.9h1.8Zm-.4,2.3h-1.1V63.2h1.5Zm-.2,1.7h-.9V65.4h1.1Zm1.7-59.4V6.2h2.2V7.6Zm0,2.3V8.6h2.2V9.9Zm0,2.2V10.9h2.2v1.2Zm0,2.4V13.1h2.2v1.4Zm0,2.2V15.4h2.2v1.4Zm0,2.4V17.7h2.2v1.4Zm0,2.3V19.9h2.2v1.5Zm0,2.3V22.2h2.2v1.5Zm0,2.3V24.5h2.2V26Zm0,2.4V26.8h2.2v1.6Zm0,2.2V29h2.2v1.6Zm0,2.4V31.3h2.2V33Zm0,2.2V33.6h2.2v1.6Zm0,2.4V35.8h2.2v1.8Zm0,2.3V38.1h2.2v1.8Zm0,2.3V40.5h2.2v1.7Zm1.8,2.3h-1.8V42.7h2.1Zm-.4,2.4h-1.4V45h1.7Zm-.3,2.2h-1.1V47.3h1.4Zm-.3,2h-.8V49.5h1Zm1.9-43.5V6.2h2.2V7.6Zm0,2.3V8.6h2.2V9.9Zm0,2.2V10.9h2.2v1.2Zm0,2.4V13.1h2.2v1.4Zm0,2.2V15.4h2.2v1.4Zm0,2.4V17.7h2.2v1.4Zm0,2.3V20h2.2v1.4Zm0,2.3V22.2h2.2v1.5Zm2,2.3h-2V24.5h2.2Zm-.3,2.4h-1.7V26.8h1.9Zm-.3,2.2h-1.4V29h1.5Zm-.5,2.4h-.9V31.3h1.2Zm1.7-25.4V6.2h2.3V7.6Zm0,2.3V8.6h2.1V9.9Zm0,2.2V10.9h1.7v1.2Zm1.2,2.4h-1.2V13.1H186Zm-.3,2.3h-.9V15.4h1.1Z" transform="translate(60.8)" fill="#fff"/><path d="M179.9,60l1.2-4.6V60Zm.1,2.3v-2h1.1v2Zm0,2.3V62.5h1.1v2.1Zm0,1.7V64.8h1.1v1.5Zm2.8-15.4v-1l.3-.9h.9v1.9Zm0,2.3V51.3H184v1.9Zm0,2.3v-2H184v2Zm0,2.2v-2H184v2Zm0,2.3V58H184v2Zm0,2.3v-2H184v2Zm0,2.3V62.5H184v2.1Zm0,1.7V64.8H184v1.5Zm2.9-24.6V40h1.2v1.7Zm0,2.3V42.2h1.2V44Zm0,2.3V44.5h1.2v1.8Zm0,2.3V46.7h1.2v1.9Zm0,2.3V49h1.2v1.9Zm0,2.3V51.3h1.2v1.9Zm0,2.3v-2h1.2v2Zm0,2.2v-2h1.2v2Zm0,2.3V58h1.2v2Zm0,2.3v-2h1.2v2Zm0,2.3V62.5h1.2v2.1Zm0,1.7V64.8h1.2v1.5Zm2.9-33.8V30.9h1.3v1.6Zm0,2.3V33.1h1.3v1.7Zm0,2.3V35.4h1.3v1.7Zm0,2.3V37.6h1.3v1.8Zm0,2.3V40h1.3v1.7Zm0,2.3V42.2h1.3V44Zm0,2.3V44.5h1.3v1.8Zm0,2.3V46.7h1.3v1.9Zm0,2.3V49h1.3v1.9Zm0,2.3V51.3h1.3v1.9Zm0,2.3v-2h1.3v2Zm0,2.2v-2h1.3v2Zm0,2.3V58h1.3v2Zm0,2.3v-2h1.3v2Zm0,2.3V62.5h1.3v2.1Zm0,1.7V64.8h1.3v1.5Zm.1-36.1,1.2-3.5v3.5Zm2.7-9.2.5-1.4h.9V21Zm.1,2.4V21.9h1.3v1.5Zm0,2.2V24.1h1.3v1.5Zm0,2.3V26.4h1.3V28Zm0,2.3V28.6h1.3v1.6Zm0,2.3V30.9h1.3v1.6Zm0,2.3V33.1h1.3v1.7Zm0,2.3V35.4h1.3v1.7Zm0,2.3V37.6h1.3v1.8Zm0,2.3V40h1.3v1.7Zm0,2.3V42.2h1.3V44Zm0,2.3V44.5h1.3v1.8Zm0,2.3V46.7h1.3v1.9Zm0,2.3V49h1.3v1.9Zm0,2.3V51.3h1.3v1.9Zm0,2.3v-2h1.3v2Zm0,2.2v-2h1.3v2Zm0,2.3V58h1.3v2Zm0,2.3v-2h1.3v2Zm0,2.3V62.5h1.3v2.1Zm.8,1.7h-.8V64.8h1.1Zm1.9-54.5.3-1.2h1.2v1.2Zm.1,2.4V12.9h1.4v1.3Zm0,2.2V15.1h1.4v1.3Zm0,2.4V17.4h1.4v1.4Zm0,2.2V19.6h1.4V21Zm0,2.3V21.9h1.4v1.5Zm0,2.3V24.1h1.4v1.5Zm0,2.3V26.4h1.4V28Zm0,2.3V28.6h1.4v1.6Zm0,2.3V30.9h1.4v1.7Zm0,2.3V33.1h1.4v1.7Zm0,2.3V35.4h1.4v1.7Zm0,2.3V37.6h1.4v1.8Zm0,2.3V40h1.4v1.7Zm0,2.3V42.2h1.4V44Zm0,2.3V44.5h1.4v1.8Zm0,2.3V46.7h1.4v1.9Zm0,2.3V49h1.4v1.9Zm0,2.3V51.3h1.4v1.9Zm1,2.3h-1v-2h1.5Zm1.9-48.2V6h1.5V7.4Zm0,2.3V8.3h1.5V9.6Zm0,2.2V10.6h1.5v1.2Zm0,2.4V12.9h1.5v1.3Zm0,2.2V15.1h1.5v1.3Zm0,2.4V17.4h1.5v1.4Zm0,2.2V19.6h1.5V21Zm0,2.3V21.9h1.5v1.5Zm0,2.3V24.1h1.5v1.5Zm0,2.3V26.4h1.5V28Zm0,2.3V28.6h1.5v1.6Zm0,2.3V30.9h1.5v1.7Zm0,2.3V33.1h1.5v1.7Zm0,2.3V35.4h1.5v1.7Zm0,2.3V37.6h1.5v1.8Zm0,2.3V40h1.5v1.7Zm0,2.3V42.2h1.5V44Zm0,2.3V44.5h1.5v1.8Zm0,2.3V46.7h1.5v1.9Zm0,2.3V49h1.5v1.9Zm0,2.3V51.3h1.5v1.9Zm2.9-45.9V6h1.6V7.4Zm0,2.3V8.3h1.6V9.6Zm0,2.2V10.6h1.6v1.2Zm0,2.4V12.9h1.6v1.3Zm0,2.2V15.1h1.6v1.3Zm0,2.3V17.4h1.6v1.4Zm0,2.3V19.6h1.6V21Zm0,2.3V21.9h1.6v1.5Zm0,2.3V24.1h1.6v1.5Zm0,2.3V26.4h1.6V28Zm0,2.3V28.6h1.6v1.6Zm1.3,2.3h-1.3V30.9h1.6v.8Zm-.6,2.3h-.7V33.1h1.3Zm-.7,6.9v-1h1.6v1Zm0,2.3V42.2h1.6V44Zm0,2.3V44.5h1.6v1.8Zm0,2.3V46.7h1.6v1.9Zm0,2.3V49h1.6v1.9Zm0,2.3V51.3h1.6v1.9Zm2.8-45.8V6h1.7V7.4Zm0,2.2V8.3h1.7V9.6Zm0,2.2V10.6h1.7v1.2Zm0,2.4V12.9h1.7v1.3Zm0,2.2V15.1h1.7v1.3Zm0,2.4V17.4h1.7v1.4Zm0,2.2V19.6h1.7V21Zm1.2,1.7v.2a.7.7,0,0,0-.1.5h-1.1V21.9h1.2Zm-1.2,19v-1h1.7v1Zm0,2.3V42.2h1.7V44Zm0,2.3V44.5h1.7v1.8Zm0,2.3V46.7h1.7v1.9Zm0,2.3V49h1.7v1.9Zm0,2.3V51.3h1.7v1.9Zm.6-29.8v-.7l-.3-.8h1.4v1.5Zm2.6,9.1-.4-1.6h1.9v1.6Zm-.3-25.1V6h1.8V7.4Zm0,2.2V8.3h1.8V9.6Zm0,2.2V10.6h1.8v1.2Zm0,2.4V12.9h1.8v1.3Zm0,2.2V15.1h1.8v1.3Zm0,2.4V17.4h1.8v1.4Zm0,2.2V19.6h1.8V21Zm0,2.4V21.9h1.8v1.5Zm0,2.2V24.1h1.8v1.5Zm0,2.4V26.4h1.8V28Zm0,2.2V28.6h1.8v1.6Zm0,11.5v-1h1.8v1Zm0,2.3V42.2h1.8V44Zm0,2.3V44.5h1.8v1.8Zm0,2.3V46.7h1.8v1.9Zm0,2.3V49h1.8v1.9Zm0,2.3V51.3h1.8v1.9Zm.9-18.4-.4-1.7h1.3v1.7Zm2-27.4V6h1.8V7.4Zm0,2.2V8.3h1.8V9.6Zm0,2.2V10.6h1.8v1.2Zm0,2.4V12.9h1.8v1.3Zm0,2.2V15.1h1.8v1.3Zm0,2.4V17.4h1.8v1.4Zm0,2.2V19.6h1.8V21Zm0,2.4V21.9h1.8v1.5Zm0,2.2V24.1h1.8v1.5Zm0,2.4V26.4h1.8V28Zm0,2.2V28.6h1.8v1.6Zm0,2.3V30.9h1.8v1.6Zm0,2.3V33.1h1.8v1.7Zm0,2.3V35.4h1.8v1.7Zm0,2.3V37.6h1.8v1.8Zm0,2.3V40h1.8v1.7Zm0,2.3V42.2h1.8V44Zm0,2.3V44.5h1.8v1.8Zm0,2.3V46.7h1.8v1.9Zm0,2.3V49h1.8v1.9Zm0,2.3V51.3h1.8v1.9Zm2.9-43.6V8.3h1l.3,1.3Zm0,2.2V10.6h1.7l.3,1.2Zm0,2.4V12.9h1.9v1.3Zm0,2.2V15.1h1.9v1.3Zm0,2.4V17.4h1.9v1.4Zm0,2.2V19.6h1.9V21Zm0,2.4V21.9h1.9v1.5Zm0,2.2V24.1h1.9v1.5Zm0,2.4V26.4h1.9V28Zm0,2.2V28.6h1.9v1.6Zm0,2.4V30.9h1.9v1.7Zm0,2.2V33.1h1.9v1.7Zm0,2.3V35.4h1.9v1.7Zm0,2.3V37.6h1.9v1.8Zm0,2.3V40h1.9v1.7Zm0,2.3V42.2h1.9V44Zm0,2.3V44.5h1.9v1.8Zm0,2.3V46.7h1.9v1.9Zm0,2.3V49h1.9v1.9Zm0,2.3V51.3h1.9v1.9Zm.5,2.3-.5-2h1.9v2Zm.6,2.2-.5-2h1.3v2Zm1.7-38.9V17.4h.8l.4,1.4Zm0,2.2V19.6h1.5l.5,1.4Zm0,2.4V21.9h2v1.5Zm0,2.2V24.1h2v1.5Zm0,2.4V26.4h2V28Zm0,2.2V28.6h2v1.6Zm0,2.4V30.9h2v1.7Zm0,2.2V33.1h2v1.7Zm0,2.3V35.4h2v1.7Zm0,2.3V37.6h2v1.8Zm0,2.3V40h2v1.7Zm0,2.3V42.2h2V44Zm0,2.3V44.5h2v1.8Zm0,2.3V46.7h2v1.9Zm0,2.3V49h2v1.9Zm0,2.3V51.3h2v1.9Zm0,2.3v-2h2v2Zm0,2.3v-2h2v2Zm0,2.2V58h2v2Zm0,2.3v-2h2v2Zm0,2.3V62.5h2v2.1Zm.6,1.7-.5-1.5h1.9v1.5ZM217.3,28V24.4l1.2,3.6Zm0,2.2V28.6h1.4l.5,1.6Zm0,2.4V30.9h2v1.7Zm0,2.2V33.1h2v1.7Zm0,2.3V35.4h2v1.7Zm0,2.3V37.6h2v1.8Zm0,2.3V40h2v1.7Zm0,2.3V42.2h2V44Zm0,2.3V44.5h2v1.8Zm0,2.3V46.7h2v1.9Zm0,2.3V49h2v1.9Zm0,2.3V51.3h2v1.9Zm0,2.3v-2h2v2Zm0,2.2v-2h2v2Zm0,2.3V58h2v2Zm0,2.3v-2h2v2Zm0,2.3V62.5h2v2.1Zm0,1.7V64.8h2v1.5Zm2.9-29.2V33l1.1,4.1Zm0,2.3V37.6h1.2l.7,1.8Zm0,2.3V40h2v1.7Zm0,2.3V42.2h2V44Zm0,2.3V44.5h2v1.8Zm0,2.3V46.7h2v1.9Zm0,2.3V49h2v1.9Zm0,2.3V51.3h2v1.9Zm0,2.3v-2h2v2Zm0,2.2v-2h2v2Zm0,2.3V58h2v2Zm0,2.3v-2h2v2Zm0,2.3V62.5h2v2.1Zm0,1.7V64.8h2v1.5Zm2.9-17.7V46.7h1.1l.6,1.9Zm0,2.3V49h1.7l.4,1.2v.7Zm0,2.3V51.3h2.1v1.9Zm0,2.3v-2h2.1v2Zm0,2.2v-2h2.1v2Zm0,2.3V58h2.1v2Zm0,2.3v-2h2.1v2Zm0,2.3V62.5h2.1v2.1Zm0,1.7V64.8h2.1v1.5Zm2.8-8.6v-2H227l.6,2Zm0,2.3V58h1.7l.7,2Zm0,2.3v-2h2.3v2Zm0,2.3V62.5h2.3v2.1Zm0,1.7V64.8h2.3v1.5Zm2.9,0V64.8h.9l.5,1.5Z" transform="translate(60.8)" fill="#fff"/><path d="M226.7,32.1V30.6h1.1v1.5Zm0,2.3V32.8h1.1v1.6Zm0,2.3V35h1.1v1.7Zm0,2.3V37.3h1.1V39Zm0,2.2V39.5h1.1v1.7Zm0,2.3V41.8h1.1v1.7Zm.1,2.2a1.4,1.4,0,0,0-.1-.9V44h1.1v1.7Zm.3,1.4-.3-.9h1v.9Zm-.2-17.2v-.7h0v-.8h.9v1.5Zm2.2-9.1.6-.8c.1-.2.1-.4.2-.6h.8v1.4Zm.4,2.3V21.7h1.2v1.4Zm0,2.3V23.9h1.2v1.5Zm0,2.2V26.1h1.2v1.5Zm0,2.3V28.3h1.2v1.6Zm0,2.2V30.6h1.2v1.5Zm0,2.3V32.8h1.2v1.6Zm0,2.3V35h1.2v1.7Zm0,2.3V37.3h1.2V39Zm0,2.2V39.5h1.2v1.7Zm0,2.3V41.8h1.2v1.7Zm0,2.2V44h1.2v1.7Zm0,2.4V46.2h1.2v1.9Zm0,2.2V48.5h1.2v1.8Zm0,2.3V50.7h1.2v1.9Zm0,2.2V52.9h1.2v1.9Zm2.3-38.5.5-.8h.2l.2-.4h.8v1.3Zm.4,2.2V17.2h1.3v1.3Zm0,2.3V19.4h1.3v1.4Zm0,2.3V21.7h1.3v1.4Zm0,2.3V23.9h1.3v1.5Zm0,2.2V26.1h1.3v1.5Zm0,2.3V28.3h1.3v1.6Zm0,2.2V30.6h1.3v1.5Zm0,2.3V32.8h1.3v1.6Zm0,2.3V35h1.3v1.7Zm0,2.3V37.3h1.3V39Zm0,2.2V39.5h1.3v1.7Zm0,2.3V41.8h1.3v1.7Zm0,2.2V44h1.3v1.7Zm0,2.4V46.2h1.3v1.9Zm0,2.2V48.5h1.3v1.8Zm0,2.3V50.7h1.3v1.9Zm0,2.2V52.9h1.3v1.9Zm0,2.3v-2h1.3v2Zm0,2.2V57.4h1.3v2Zm3.3,3.6a4.4,4.4,0,0,1-.8-1.1h1.6v1.8ZM235,14V12.8h1.3V14Zm0,2.3V15h1.3v1.3Zm0,2.2V17.2h1.3v1.3Zm0,2.3V19.4h1.3v1.4Zm0,2.3V21.7h1.3v1.4Zm0,2.3V23.9h1.3v1.5Zm0,2.2V26.1h1.3v1.5Zm0,2.3V28.3h1.3v1.6Zm0,2.2V30.6h1.3v1.5Zm0,2.3V32.8h1.3v1.6Zm0,2.3V35h1.3v1.7Zm0,2.3V37.3h1.3V39Zm0,2.2V39.5h1.3v1.7Zm0,2.3V41.8h1.3v1.7Zm0,2.2V44h1.3v1.7Zm0,2.4V46.2h1.3v1.9Zm0,2.2V48.5h1.3v1.8Zm0,2.3V50.7h1.3v1.9Zm0,2.2V52.9h1.3v1.9Zm0,2.3v-2h1.3v2Zm0,2.2V57.4h1.3v2Zm0,2.3v-2h1.3v2Zm3.5,3.7h-.2l-.3-.2-1-1h2.1v2.1Zm-.8-53.5V10.5h1.4v1.3Zm0,2.2V12.8h1.4V14Zm0,2.3V15h1.4v1.3Zm0,2.2V17.2h1.4v1.3Zm0,2.3V19.4h1.4v1.4Zm0,2.3V21.7h1.4v1.4Zm0,2.3V23.9h1.4v1.5Zm0,2.2V26.1h1.4v1.5Zm0,2.3V28.3h1.4v1.6Zm0,2.2V30.6h1.4v1.5Zm0,2.3V32.8h1.4v1.6Zm0,2.3V35h1.4v1.7Zm0,2.3V37.3h1.4V39Zm0,2.2V39.5h1.4v1.7Zm0,2.3V41.8h1.4v1.7Zm0,2.2V44h1.4v1.7Zm0,2.4V46.2h1.4v1.9Zm0,2.2V48.5h1.4v1.8Zm0,2.3V50.7h1.4v1.9Zm0,2.2V52.9h1.4v1.9Zm0,2.3v-2h1.4v2Zm0,2.2V57.4h1.4v2Zm0,2.3v-2h1.4v2Zm0,2.3V61.8h1.4v2.1Zm2.8-54.3V8.2h1.4V9.6Zm0,2.2V10.5h1.4v1.3Zm0,2.2V12.8h1.4V14Zm0,2.3V15h1.4v1.3Zm0,2.2V17.2h1.4v1.3Zm0,2.3V19.4h1.4v1.4Zm0,2.3V21.7h1.4v1.4Zm0,2.3V23.9h1.4v1.5Zm0,2.2V26.1h1.4v1.5Zm.7,1.7a2.6,2.6,0,0,1-.7,1.1V28.3h.9A1.8,1.8,0,0,1,241.2,29.3Zm-.7,18.8V46.2h1.1l.2.5c0,.1.1.2.1.3v1.1Zm0,2.2V48.5h1.4v1.8Zm0,2.3V50.7h1.4v1.9Zm0,2.2V52.9h1.4v1.9Zm0,2.3v-2h1.4v2Zm0,2.3v-2h1.4v2Zm0,2.2v-2h1.4v2Zm0,2.3V61.8h1.4v2.1Zm0,2.2v-2h1.4v2Zm2.7-56.5V8.2h1.6V9.6Zm0,2.2V10.5h1.6v1.3Zm0,2.2V12.8h1.6V14Zm0,2.3V15h1.6v1.3Zm0,2.2V17.2h1.6v1.3Zm0,2.4V19.5h1.6v1.4Zm0,2.2V21.7h1.6v1.4Zm0,29.5V50.7h1.6v1.9Zm0,2.2V52.9h1.6v1.9Zm0,2.3v-2h1.6v2Zm0,2.3v-2h1.6v2Zm0,2.2v-2h1.6v2Zm0,2.3V61.8h1.6v2.1Zm0,2.2v-2h1.6v2ZM244,68l-.8-.2V66.3h1.6v2Zm1.9-58.4V8.2h1.6V9.6Zm0,2.2V10.5h1.6v1.3Zm0,2.2V12.8h1.6V14Zm0,2.3V15h1.6v1.3Zm0,2.2V17.2h1.6v1.3Zm0,2.4V19.5h1.6v1.4Zm0,33.9V52.9h1.6v1.9Zm0,2.3v-2h1.6v2Zm0,2.3v-2h1.6v2Zm0,2.2v-2h1.6v2Zm0,2.3V61.8h1.6v2.1Zm0,2.2v-2h1.6v2Zm0,2.3V66.3h1.6v2.1Zm.5-61.1V6.2h1.1v1Zm2.3,0V6h1.7V7.2Zm0,2.3V8.2h1.7V9.6Zm0,2.2V10.5h1.7v1.3Zm0,2.2V12.8h1.7V14Zm0,2.3V15h1.7v1.3Zm0,2.2V17.2h1.7v1.3Zm.8,2.4h-.8V19.5h1.7v1l-.9.3Zm.5,33.9h-1.3V53.2l.9.5h.5Zm-1.3,2.3v-2h1.7v2Zm0,2.2V57.4h1.7v2Zm0,2.3v-2h1.7v2Zm0,2.3V61.8h1.7v2.1Zm0,2.2v-2h1.7v2Zm0,2.3V66.3h1.7v2.1Zm2.7-61.2V6h1.8V7.2Zm0,2.4V8.2h1.8V9.6Zm0,2.2V10.5h1.8v1.3Zm0,2.2V12.8h1.8V14Zm0,2.3V15h1.8v1.3Zm0,2.2V17.2h1.8v1.3Zm0,38.6v-2h1.8v2Zm0,2.2V57.4h1.8v2Zm0,2.3v-2h1.8v2Zm0,2.3V61.8h1.8v2.1Zm0,2.2v-2h1.8v2Zm0,2.3V66.3h1.8v2.1Zm2.8-61.2V6H256V7Zm0,2.4V8.2H256V9.6Zm0,2.2V10.5H256v1.3Zm0,2.2V12.8H256V14Zm0,2.3V15H256v1.3Zm0,2.2V17.2H256v1.3Zm0,38.6v-2H256v2Zm0,2.2V57.4H256v2Zm0,2.3v-2H256v2Zm0,2.3V61.8H256v2.1Zm0,2.2v-2H256v2Zm0,2.3V66.3H256v2.1Zm2.7-58.8V8.2h1.9V9.6Zm0,2.2V10.5h1.9v1.3Zm0,2.2V12.8h1.9V14Zm0,2.3V15h1.9v1.3Zm0,2.2V17.2h1.9v1.3Zm1.2,2.3-1.2-.2V19.4h1.9v1.4Zm-1.2,36.3v-2h1.9v2Zm0,2.2V57.4h1.9v2Zm0,2.3v-2h1.9v2Zm0,2.3V61.8h1.9v2.1Zm0,2.2v-2h1.9v2Zm0,2.3V66.3h1.9v2.1Zm2.8-58.8V8.2h1.9V9.6Zm0,2.2V10.5h1.9v1.3Zm0,2.2V12.8h1.9V14Zm0,2.3V15h1.9v1.3Zm0,2.2V17.2h1.9v1.3Zm0,2.4V19.5h1.9v1.4Zm0,33.9v-1l.9-.3,1-.2v1.5Zm0,2.3v-2h1.9v2Zm0,2.3v-2h1.9v2Zm0,2.2v-2h1.9v2Zm0,2.3V61.8h1.9v2.1Zm0,2.2v-2h1.9v2Zm1.1,2.1-1.1.2V66.3h1.9v1.5Zm2.3-45.6a3.1,3.1,0,0,1-.7-.9h1.3v1.1Zm-.7-13V8.2h.9l.3.2h0l.8.3v1Zm0,2.2V10.5h2v1.3Zm0,2.2V12.8h2V14Zm0,2.3V15h2v1.3Zm0,2.2V17.2h2v1.3Zm1.6,2.4h-1.6V19.5h1.8Zm-1.6,33.9V52.9h1.4l.5,1.9Zm0,2.3v-2h2v2Zm0,2.2V57.4h2v2Zm0,2.3v-2h2v2Zm0,2.3V61.8h2v2.1Zm0,2.2v-2h2v2Zm0,1.6V66.3h4.2Zm2.8-3.8V59l1.1,4.9Zm1.2,2.2h-1.2v-2h1.1l.5,1.6C266.6,65.9,266.5,66.1,266.4,66.1Z" transform="translate(60.8)" fill="#fff"/></svg>